<mxfile host="app.diagrams.net" modified="2024-10-21T19:01:35.742Z" agent="Mozilla/5.0 (Windows NT 10.0; Win64; x64; rv:131.0) Gecko/20100101 Firefox/131.0" version="21.3.7" etag="d5qSmvcHuX3JLCsSbwV9" type="github">
  <diagram name="Страница 1" id="P0GmruB6eW6cr6yscBPj">
    <mxGraphModel>
      <root>
        <mxCell id="0" />
        <mxCell id="1" parent="0" />
      </root>
    </mxGraphModel>
  </diagram>
</mxfile>
